<svg width="101" height="115" viewBox="0 0 101 115" fill="none" xmlns="http://www.w3.org/2000/svg">
<path d="M0 21.5625C0 17.5937 3.23065 14.375 7.21429 14.375H93.7857C97.7761 14.375 101 17.5937 101 21.5625C101 25.5381 97.7761 28.75 93.7857 28.75H7.21429C3.23065 28.75 0 25.5381 0 21.5625ZM0 57.5C0 53.5244 3.23065 50.3125 7.21429 50.3125H93.7857C97.7761 50.3125 101 53.5244 101 57.5C101 61.4756 97.7761 64.6875 93.7857 64.6875H7.21429C3.23065 64.6875 0 61.4756 0 57.5ZM93.7857 100.625H7.21429C3.23065 100.625 0 97.4131 0 93.4375C0 89.4619 3.23065 86.25 7.21429 86.25H93.7857C97.7761 86.25 101 89.4619 101 93.4375C101 97.4131 97.7761 100.625 93.7857 100.625Z" fill="white"/>
</svg>
