<svg width="149" height="132" viewBox="0 0 149 132" fill="none" xmlns="http://www.w3.org/2000/svg">
<path d="M132.393 74.1469L132.574 115.423C132.574 116.145 132.522 116.815 132.444 117.511V121.688C132.444 127.385 127.814 132 122.097 132H117.958C117.674 132 117.389 131.768 117.105 131.974C116.743 131.768 116.38 132 116.018 132H101.403C95.6859 132 91.0556 127.385 91.0556 121.688V99C91.0556 94.4367 87.3564 90.75 82.7778 90.75H66.2222C61.6436 90.75 57.9444 94.4367 57.9444 99V121.688C57.9444 127.385 53.3141 132 47.5972 132H33.137C32.749 132 32.3609 131.974 31.9729 131.948C31.6625 131.974 31.3521 132 31.0417 132H26.9028C21.1885 132 16.5556 127.385 16.5556 121.688V92.8125C16.5556 92.5805 16.5633 92.3227 16.5788 92.0906V74.1469H8.29071C3.6267 74.1469 0 70.5117 0 65.8711C0 63.5508 0.777076 61.4883 2.58939 59.6836L68.9125 2.06662C70.7233 0.258328 72.7927 0 74.6035 0C76.4142 0 78.4837 0.516656 80.0616 1.8083L107.611 25.9617V16.5C107.611 11.9445 111.31 8.25 115.889 8.25H124.167C128.745 8.25 132.444 11.9445 132.444 16.5V47.6953L146.103 59.6836C148.172 61.4883 149.233 63.5508 148.948 65.8711C148.948 70.5117 145.068 74.1469 140.67 74.1469H132.393Z" fill="white"/>
</svg>
